<svg height="1294" width="720" xmlns="http://www.w3.org/2000/svg">
<rect height="1294" fill="#555" width="720"></rect>
<text fill="#7f7" font-family="Courier New" font-size="12" xml:space="preserve">
<tspan x="10" y="26">11 megabytes installed</tspan>
<tspan x="10" y="42"></tspan>
<tspan x="10" y="58">node_modules</tspan>
<tspan x="10" y="74">└─┬ cli-weather@2.0.7 </tspan>
<tspan x="10" y="90">  ├─┬ chalk@1.1.3 </tspan>
<tspan x="10" y="106">  │ ├── ansi-styles@2.2.1 </tspan>
<tspan x="10" y="122">  │ ├── escape-string-regexp@1.0.5 </tspan>
<tspan x="10" y="138">  │ ├─┬ has-ansi@2.0.0 </tspan>
<tspan x="10" y="154">  │ │ └── ansi-regex@2.1.1 </tspan>
<tspan x="10" y="170">  │ ├── strip-ansi@3.0.1 </tspan>
<tspan x="10" y="186">  │ └── supports-color@2.0.0 </tspan>
<tspan x="10" y="202">  ├─┬ cli-table2@0.2.0 </tspan>
<tspan x="10" y="218">  │ ├── colors@1.1.2 </tspan>
<tspan x="10" y="234">  │ ├── lodash@3.10.1 </tspan>
<tspan x="10" y="250">  │ └─┬ string-width@1.0.2 </tspan>
<tspan x="10" y="266">  │   ├── code-point-at@1.1.0 </tspan>
<tspan x="10" y="282">  │   └─┬ is-fullwidth-code-point@1.0.0 </tspan>
<tspan x="10" y="298">  │     └── number-is-nan@1.0.1 </tspan>
<tspan x="10" y="314">  ├─┬ geocoder@0.2.3 </tspan>
<tspan x="10" y="330">  │ ├── underscore@1.3.3 </tspan>
<tspan x="10" y="346">  │ └─┬ xml2js@0.2.0 </tspan>
<tspan x="10" y="362">  │   └── sax@1.2.2 </tspan>
<tspan x="10" y="378">  ├── minimist@1.2.0 </tspan>
<tspan x="10" y="394">  ├── open@0.0.5 </tspan>
<tspan x="10" y="410">  ├─┬ request@2.81.0 </tspan>
<tspan x="10" y="426">  │ ├── aws-sign2@0.6.0 </tspan>
<tspan x="10" y="442">  │ ├── aws4@1.6.0 </tspan>
<tspan x="10" y="458">  │ ├── caseless@0.12.0 </tspan>
<tspan x="10" y="474">  │ ├─┬ combined-stream@1.0.5 </tspan>
<tspan x="10" y="490">  │ │ └── delayed-stream@1.0.0 </tspan>
<tspan x="10" y="506">  │ ├── extend@3.0.0 </tspan>
<tspan x="10" y="522">  │ ├── forever-agent@0.6.1 </tspan>
<tspan x="10" y="538">  │ ├─┬ form-data@2.1.4 </tspan>
<tspan x="10" y="554">  │ │ └── asynckit@0.4.0 </tspan>
<tspan x="10" y="570">  │ ├─┬ har-validator@4.2.1 </tspan>
<tspan x="10" y="586">  │ │ ├─┬ ajv@4.11.7 </tspan>
<tspan x="10" y="602">  │ │ │ ├── co@4.6.0 </tspan>
<tspan x="10" y="618">  │ │ │ └─┬ json-stable-stringify@1.0.1 </tspan>
<tspan x="10" y="634">  │ │ │   └── jsonify@0.0.0 </tspan>
<tspan x="10" y="650">  │ │ └── har-schema@1.0.5 </tspan>
<tspan x="10" y="666">  │ ├─┬ hawk@3.1.3 </tspan>
<tspan x="10" y="682">  │ │ ├── boom@2.10.1 </tspan>
<tspan x="10" y="698">  │ │ ├── cryptiles@2.0.5 </tspan>
<tspan x="10" y="714">  │ │ ├── hoek@2.16.3 </tspan>
<tspan x="10" y="730">  │ │ └── sntp@1.0.9 </tspan>
<tspan x="10" y="746">  │ ├─┬ http-signature@1.1.1 </tspan>
<tspan x="10" y="762">  │ │ ├── assert-plus@0.2.0 </tspan>
<tspan x="10" y="778">  │ │ ├─┬ jsprim@1.4.0 </tspan>
<tspan x="10" y="794">  │ │ │ ├── assert-plus@1.0.0 </tspan>
<tspan x="10" y="810">  │ │ │ ├── extsprintf@1.0.2 </tspan>
<tspan x="10" y="826">  │ │ │ ├── json-schema@0.2.3 </tspan>
<tspan x="10" y="842">  │ │ │ └── verror@1.3.6 </tspan>
<tspan x="10" y="858">  │ │ └─┬ sshpk@1.13.0 </tspan>
<tspan x="10" y="874">  │ │   ├── asn1@0.2.3 </tspan>
<tspan x="10" y="890">  │ │   ├── assert-plus@1.0.0 </tspan>
<tspan x="10" y="906">  │ │   ├── bcrypt-pbkdf@1.0.1 </tspan>
<tspan x="10" y="922">  │ │   ├─┬ dashdash@1.14.1 </tspan>
<tspan x="10" y="938">  │ │   │ └── assert-plus@1.0.0 </tspan>
<tspan x="10" y="954">  │ │   ├── ecc-jsbn@0.1.1 </tspan>
<tspan x="10" y="970">  │ │   ├─┬ getpass@0.1.6 </tspan>
<tspan x="10" y="986">  │ │   │ └── assert-plus@1.0.0 </tspan>
<tspan x="10" y="1002">  │ │   ├── jodid25519@1.0.2 </tspan>
<tspan x="10" y="1018">  │ │   ├── jsbn@0.1.1 </tspan>
<tspan x="10" y="1034">  │ │   └── tweetnacl@0.14.5 </tspan>
<tspan x="10" y="1050">  │ ├── is-typedarray@1.0.0 </tspan>
<tspan x="10" y="1066">  │ ├── isstream@0.1.2 </tspan>
<tspan x="10" y="1082">  │ ├── json-stringify-safe@5.0.1 </tspan>
<tspan x="10" y="1098">  │ ├─┬ mime-types@2.1.15 </tspan>
<tspan x="10" y="1114">  │ │ └── mime-db@1.27.0 </tspan>
<tspan x="10" y="1130">  │ ├── oauth-sign@0.8.2 </tspan>
<tspan x="10" y="1146">  │ ├── performance-now@0.2.0 </tspan>
<tspan x="10" y="1162">  │ ├── qs@6.4.0 </tspan>
<tspan x="10" y="1178">  │ ├── safe-buffer@5.0.1 </tspan>
<tspan x="10" y="1194">  │ ├── stringstream@0.0.5 </tspan>
<tspan x="10" y="1210">  │ ├─┬ tough-cookie@2.3.2 </tspan>
<tspan x="10" y="1226">  │ │ └── punycode@1.4.1 </tspan>
<tspan x="10" y="1242">  │ ├── tunnel-agent@0.6.0 </tspan>
<tspan x="10" y="1258">  │ └── uuid@3.0.1 </tspan>
<tspan x="10" y="1274">  └── wordwrap@1.0.0</tspan>
</text>
</svg>
